HIERARCHY
ROOT Hips
{
 OFFSET 0.000000 0.000000 0.000000
 CHANNELS 6 Xposition Yposition Zposition Yrotation Xrotation Zrotation
 JOINT Chest
 {
  OFFSET 0.000000 9.585900 0.002600
  CHANNELS 3 Yrotation Xrotation Zrotation
  JOINT Chest2
  {
   OFFSET 0.000000 9.601200 -0.005300
   CHANNELS 3 Yrotation Xrotation Zrotation
   JOINT Chest3
   {
    OFFSET 0.000000 9.561800 0.000000
    CHANNELS 3 Yrotation Xrotation Zrotation
    JOINT Chest4
    {
     OFFSET 0.000000 9.552100 0.000000
     CHANNELS 3 Yrotation Xrotation Zrotation
     JOINT Neck
     {
      OFFSET 0.000000 14.453000 0.000000
      CHANNELS 3 Yrotation Xrotation Zrotation
      JOINT Head
      {
       OFFSET 0.000000 8.936500 -0.011300
       CHANNELS 3 Yrotation Xrotation Zrotation
       End Site
       {
        OFFSET 0.000000 17.073600 -0.006000
       }
      }
     }
     JOINT RightCollar
     {
      OFFSET -2.921100 9.558500 0.000000
      CHANNELS 3 Yrotation Xrotation Zrotation
      JOINT RightShoulder
      {
       OFFSET -13.519700 0.000000 0.000000
       CHANNELS 3 Yrotation Xrotation Zrotation
       JOINT RightElbow
       {
        OFFSET 0.000000 -29.696600 0.000000
        CHANNELS 3 Yrotation Xrotation Zrotation
        JOINT RightWrist
        {
         OFFSET 0.000000 -24.004700 0.000000
         CHANNELS 3 Yrotation Xrotation Zrotation
         End Site
         {
          OFFSET 0.000000 -17.728500 0.000000
         }
        }
       }
      }
     }
     JOINT LeftCollar
     {
      OFFSET 2.921100 9.558500 0.000000
      CHANNELS 3 Yrotation Xrotation Zrotation
      JOINT LeftShoulder
      {
       OFFSET 13.519700 0.000000 0.000000
       CHANNELS 3 Yrotation Xrotation Zrotation
       JOINT LeftElbow
       {
        OFFSET 0.000000 -29.696600 0.000000
        CHANNELS 3 Yrotation Xrotation Zrotation
        JOINT LeftWrist
        {
         OFFSET 0.000000 -24.004700 0.000000
         CHANNELS 3 Yrotation Xrotation Zrotation
         End Site
         {
          OFFSET 0.000000 -17.728500 0.000000
         }
        }
       }
      }
     }
    }
   }
  }
 }
 JOINT RightHip
 {
  OFFSET -7.771700 -0.012900 -0.001300
  CHANNELS 3 Yrotation Xrotation Zrotation
  JOINT RightKnee
  {
   OFFSET 0.000000 -40.869800 0.001200
   CHANNELS 3 Yrotation Xrotation Zrotation
   JOINT RightAnkle
   {
    OFFSET 0.000000 -39.717900 0.002100
    CHANNELS 3 Yrotation Xrotation Zrotation
    JOINT RightToe
    {
     OFFSET 0.000000 -4.965400 11.033500
     CHANNELS 3 Yrotation Xrotation Zrotation
     End Site
     {
      OFFSET 0.000000 -1.423100 5.872300
     }
    }
   }
  }
 }
 JOINT LeftHip
 {
  OFFSET 7.771700 -0.012900 -0.001300
  CHANNELS 3 Yrotation Xrotation Zrotation
  JOINT LeftKnee
  {
   OFFSET 0.000000 -40.869800 0.001200
   CHANNELS 3 Yrotation Xrotation Zrotation
   JOINT LeftAnkle
   {
    OFFSET 0.000000 -39.717900 0.002100
    CHANNELS 3 Yrotation Xrotation Zrotation
    JOINT LeftToe
    {
     OFFSET 0.000000 -4.965400 11.033500
     CHANNELS 3 Yrotation Xrotation Zrotation
     End Site
     {
      OFFSET 0.000000 -1.423100 5.872300
     }
    }
   }
  }
 }
}
MOTION
Frames: 13
Frame Time: 0.008333
0.000000 85.388000 0.000000 0.000000 -5.767877 0.000000 0.000000 11.653817 0.000000 0.000000 -5.885947 0.000000 0.000000 -0.000000 0.000000 0.000000 -0.000000 0.000000 0.000000 12.528835 0.000000 0.000000 0.711642 0.000000 0.000000 -0.000000 0.000000 0.000000 0.000000 -90.000000 0.000000 -2.309062 0.000000 0.000000 2.309062 0.000000 0.000000 -0.000000 0.000000 0.000000 -0.000000 90.000000 0.000000 -2.309062 0.000000 0.000000 2.309062 0.000000 0.000000 8.520406 0.000000 0.000000 1.905762 0.000000 -0.000000 -4.658285 0.000000 0.000000 -0.000000 0.000000 0.000000 8.520406 0.000000 0.000000 1.905762 0.000000 -0.000000 -4.658285 0.000000 0.000000 -0.000000 0.000000
-191.602682 58.012410 28.793231 171.238199 -48.878907 -3.125902 5.337530 21.821442 3.586122 2.771329 12.504952 1.843059 3.549564 15.610059 2.415849 2.770373 12.505596 1.844585 -1.188407 14.389447 -0.442616 -2.064040 -9.113853 -0.375760 1.312784 3.814845 0.941030 6.263949 -13.577320 -13.183802 -103.553008 -74.531337 139.258276 9.394241 6.355071 -24.661962 -10.338382 1.516867 -1.170656 -3.463740 -11.467021 17.567760 69.116867 -61.467720 -113.185468 -4.942964 -5.036220 13.345234 3.992815 -23.801495 0.455665 -37.643303 73.406641 -38.807868 6.078682 -12.439636 9.068730 0.007155 -0.190600 -0.007526 -1.925244 -22.221533 12.083526 53.288953 79.576063 53.104072 4.624444 -16.221084 -16.435043 0.073175 0.124074 0.031180
-191.602920 58.012248 28.793876 171.234142 -48.879290 -3.116922 5.337373 21.825457 3.580517 2.771296 12.508114 1.843146 3.552119 15.637943 2.412042 2.771784 12.515233 1.841171 -1.247908 14.343596 -0.556182 -2.131767 -9.157673 -0.566974 1.306689 3.778189 0.948468 6.278703 -13.579967 -13.179560 -103.581382 -74.543620 139.276188 9.379317 6.352506 -24.666472 -10.361504 1.500811 -1.164549 -3.450198 -11.486927 17.582390 69.133129 -61.461012 -113.194791 -4.939747 -5.042966 13.353148 3.991541 -23.802478 0.454015 -37.673424 73.398924 -38.846404 6.087395 -12.432291 9.074052 0.006146 -0.192223 -0.007102 -1.925886 -22.219134 12.081779 53.267129 79.576059 53.076441 4.620949 -16.219727 -16.435727 0.073777 0.125047 0.033083
-191.603796 58.012156 28.794562 171.233120 -48.880060 -3.105867 5.334242 21.829697 3.570071 2.771722 12.515229 1.841360 3.555112 15.644157 2.405377 2.772579 12.519841 1.837899 -1.300553 14.327899 -0.657783 -2.191808 -9.187822 -0.737604 1.298011 3.768124 0.954997 6.289274 -13.578031 -13.172060 -103.638737 -74.549627 139.327594 9.386111 6.350415 -24.674009 -10.373744 1.489833 -1.155742 -3.460830 -11.481782 17.598191 69.161818 -61.440296 -113.211295 -4.956464 -5.041280 13.363888 3.993280 -23.802123 0.446538 -37.706878 73.389908 -38.886133 6.086710 -12.422256 9.084324 -0.002111 -0.191654 -0.008687 -1.929265 -22.216331 12.074318 53.229510 79.579287 53.032195 4.627330 -16.215561 -16.439285 0.072229 0.125073 0.036040
-191.603855 58.012041 28.795735 171.230487 -48.879920 -3.098613 5.339244 21.834001 3.566966 2.773912 12.532339 1.830106 3.553574 15.630137 2.411593 2.772535 12.534993 1.826354 -1.345901 14.318320 -0.746926 -2.242890 -9.206493 -0.887577 1.289468 3.758853 0.959989 6.293539 -13.584793 -13.166462 -103.701068 -74.559851 139.388191 9.375299 6.348287 -24.685054 -10.377250 1.471743 -1.137379 -3.472461 -11.473635 17.599874 69.185261 -61.405355 -113.230989 -4.986935 -5.035577 13.387188 3.993110 -23.803844 0.444323 -37.738039 73.381314 -38.923436 6.096440 -12.408529 9.090988 -0.001321 -0.200067 -0.010726 -1.932820 -22.215411 12.071036 53.228031 79.574137 53.026010 4.629197 -16.209173 -16.445930 0.067552 0.124557 0.039409
-191.603249 58.012518 28.796815 171.227751 -48.883555 -3.095211 5.342648 21.844700 3.563926 2.773610 12.531588 1.827787 3.554616 15.649637 2.395227 2.775006 12.535872 1.823974 -1.382214 14.314265 -0.823924 -2.281697 -9.214709 -1.018219 1.284681 3.746601 0.964799 6.295360 -13.590262 -13.161787 -103.769159 -74.574498 139.449120 9.368522 6.347045 -24.679967 -10.386671 1.455591 -1.124762 -3.478786 -11.466152 17.611618 69.217047 -61.407152 -113.245769 -4.953311 -5.055181 13.387420 3.984261 -23.797409 0.447386 -37.746241 73.369428 -38.942793 6.118038 -12.401577 9.096830 -0.000700 -0.198518 -0.012628 -1.932863 -22.211539 12.070685 53.220661 79.574303 53.017543 4.634617 -16.206039 -16.449930 0.078010 0.122841 0.040886
-191.603372 58.013085 28.797914 171.226306 -48.887247 -3.088813 5.340279 21.857401 3.551158 2.776647 12.529900 1.828533 3.556020 15.672970 2.374659 2.778539 12.536608 1.821529 -1.409054 14.316289 -0.889685 -2.306909 -9.211481 -1.131554 1.281711 3.728741 0.968972 6.297538 -13.600278 -13.148376 -103.827058 -74.635966 139.483889 9.360980 6.348586 -24.658858 -10.409327 1.448159 -1.141944 -3.476609 -11.474801 17.654568 69.226903 -61.356282 -113.258761 -4.989357 -5.044525 13.399800 3.974793 -23.792504 0.449372 -37.764599 73.356393 -38.973361 6.115023 -12.384034 9.110412 0.003673 -0.202802 -0.018817 -1.936833 -22.205121 12.068471 53.203965 79.571120 52.995598 4.632677 -16.202149 -16.453425 0.074959 0.123475 0.041354
-191.602990 58.013725 28.799295 171.223403 -48.890692 -3.085037 5.347004 21.881963 3.534932 2.777256 12.523883 1.829592 3.561850 15.684488 2.365628 2.781410 12.543490 1.814679 -1.428197 14.325926 -0.945215 -2.321438 -9.194089 -1.228712 1.281710 3.698598 0.985748 6.295695 -13.599371 -13.144786 -103.861959 -74.664950 139.507575 9.361787 6.350716 -24.646656 -10.420623 1.427183 -1.136896 -3.479689 -11.477562 17.674965 69.241037 -61.319408 -113.276265 -5.023217 -5.025949 13.412082 3.947470 -23.785605 0.459274 -37.755366 73.342822 -38.990401 6.126413 -12.377345 9.118307 -0.013366 -0.190590 -0.019693 -1.941600 -22.198977 12.070900 53.181672 79.570852 52.970160 4.629851 -16.199098 -16.456332 0.081149 0.122512 0.040144
-191.602464 58.014250 28.800999 171.220740 -48.892673 -3.083037 5.352897 21.896029 3.525194 2.780852 12.530036 1.826831 3.564325 15.694970 2.352835 2.786149 12.541062 1.817426 -1.444590 14.354394 -1.001030 -2.326745 -9.159171 -1.310396 1.279247 3.675310 0.994921 6.276048 -13.576448 -13.174091 -103.933638 -74.631609 139.588760 9.378898 6.371393 -24.640647 -10.426347 1.407716 -1.125114 -3.473875 -11.475340 17.644486 69.241699 -61.324984 -113.289481 -5.046273 -5.004766 13.424913 3.935149 -23.782382 0.464996 -37.768903 73.331142 -39.015364 6.141860 -12.370350 9.124017 -0.017710 -0.189829 -0.022975 -1.948846 -22.192910 12.077643 53.183444 79.559421 52.964572 4.614192 -16.195123 -16.457622 0.086054 0.123488 0.040296
-191.601476 58.014917 28.802822 171.218652 -48.895500 -3.084599 5.359281 21.910344 3.517265 2.785387 12.538418 1.821094 3.565493 15.703212 2.341081 2.789028 12.548405 1.809492 -1.445255 14.364676 -1.020699 -2.323863 -9.085457 -1.393847 1.271666 3.668892 0.951584 6.272019 -13.613041 -13.105464 -103.956740 -74.686954 139.596818 9.370184 6.363880 -24.627026 -10.435393 1.393018 -1.132966 -3.466271 -11.488922 17.675815 69.265556 -61.311831 -113.334447 -5.052566 -4.987276 13.433486 3.925158 -23.778355 0.472356 -37.779214 73.321351 -39.034938 6.162895 -12.366330 9.126742 -0.028563 -0.191390 -0.025569 -1.955941 -22.188230 12.087918 53.183001 79.558409 52.957687 4.611768 -16.193726 -16.461541 0.087211 0.123772 0.042891
-191.601213 58.015243 28.804879 171.217189 -48.896100 -3.082536 5.363918 21.921736 3.506205 2.789537 12.560390 1.796006 3.571012 15.682397 2.361935 2.786125 12.580121 1.775975 -1.440987 14.395588 -1.038339 -2.313154 -9.010859 -1.446194 1.276438 3.638669 0.951693 6.256818 -13.615446 -13.095557 -104.015355 -74.715111 139.645198 9.360417 6.355885 -24.606975 -10.441853 1.369601 -1.134157 -3.460294 -11.500428 17.726099 69.298607 -61.283351 -113.388308 -5.052656 -4.972068 13.434636 3.923246 -23.777042 0.472777 -37.781336 73.315294 -39.042118 6.174712 -12.362377 9.130075 -0.013881 -0.187638 -0.022447 -1.964374 -22.186511 12.091169 53.188442 79.556881 52.955699 4.614268 -16.190755 -16.466225 0.086818 0.124118 0.044951
-191.601584 58.015448 28.806948 171.214956 -48.896734 -3.075774 5.365891 21.927654 3.496492 2.793715 12.576161 1.776306 3.573560 15.693774 2.348170 2.790350 12.579426 1.774584 -1.441196 14.465303 -1.073492 -2.296679 -8.936603 -1.466247 1.279079 3.615747 0.954065 6.245422 -13.606527 -13.101219 -104.085915 -74.726276 139.705772 9.359051 6.357892 -24.591621 -10.449179 1.350537 -1.137401 -3.445541 -11.506913 17.746520 69.291494 -61.288073 -113.397415 -5.042719 -4.973256 13.422336 3.916126 -23.775019 0.474390 -37.766482 73.310847 -39.039753 6.168560 -12.358978 9.136405 -0.013648 -0.182443 -0.021878 -1.973746 -22.183421 12.089479 53.198583 79.550145 52.955017 4.612495 -16.187716 -16.468225 0.091604 0.125195 0.044709
-191.602471 58.016347 28.808312 171.223740 -48.903646 -3.072992 5.360695 21.939627 3.483707 2.797925 12.585416 1.759877 3.576347 15.709194 2.329941 2.793399 12.579560 1.773523 -1.432379 14.525436 -1.081007 -2.277329 -8.825112 -1.484260 1.284905 3.586452 0.982347 6.231580 -13.592131 -13.131375 -104.128454 -74.734818 139.745899 9.356854 6.362464 -24.589225 -10.457755 1.335653 -1.139008 -3.427665 -11.517003 17.754338 69.267645 -61.248700 -113.396666 -5.052023 -4.982032 13.401377 3.903570 -23.766744 0.471524 -37.751387 73.308995 -39.035061 6.147182 -12.349777 9.141327 -0.017859 -0.180339 -0.019383 -1.987022 -22.175037 12.086429 53.206519 79.545687 52.951329 4.600764 -16.182486 -16.466869 0.095263 0.122174 0.044665
